<svg width="627" height="339" viewBox="0 0 627 339" fill="none" xmlns="http://www.w3.org/2000/svg">
<path d="M611.324 78.7486L363.764 3.09203C350.274 -1.03068 335.719 -1.03068 322.238 3.09203L74.6689 78.7486C53.777 85.1313 53.777 112.613 74.6689 118.996L117.828 132.185C108.359 143.829 102.536 158.033 101.96 173.588C93.4129 178.462 87.3957 187.254 87.3957 197.751C87.3957 207.268 92.4367 215.275 99.6965 220.395L77.0385 321.812C75.0683 330.631 81.8133 339 90.8924 339H140.69C149.778 339 156.523 330.631 154.553 321.812L131.895 220.395C139.155 215.275 144.196 207.268 144.196 197.751C144.196 187.537 138.454 178.991 130.298 174.03C130.972 160.77 137.788 149.046 148.66 141.613L322.229 194.661C330.27 197.115 345.695 200.179 363.755 194.661L611.324 119.005C632.225 112.613 632.225 85.1401 611.324 78.7486ZM372.098 221.666C346.777 229.4 325.202 225.127 313.887 221.666L185.181 182.337L172.596 282.5C172.596 313.708 248.886 339 342.997 339C437.108 339 513.397 313.708 513.397 282.5L500.813 182.328L372.098 221.666Z" fill="white"/>
<path d="M479.338 267.082L480.988 271.999C481.602 273.868 482.647 275.567 484.037 276.959C485.428 278.351 487.126 279.397 488.994 280.012L493.969 281.668C494.136 281.722 494.282 281.829 494.386 281.971C494.489 282.114 494.545 282.286 494.545 282.462C494.545 282.639 494.489 282.81 494.386 282.953C494.282 283.096 494.136 283.202 493.969 283.257L488.992 284.91C487.141 285.526 485.46 286.566 484.081 287.946C482.703 289.327 481.666 291.01 481.052 292.862L479.402 297.84C479.347 298.007 479.24 298.152 479.097 298.256C478.954 298.359 478.783 298.414 478.606 298.414C478.43 298.414 478.258 298.359 478.116 298.256C477.973 298.152 477.866 298.007 477.811 297.84L476.097 292.923C475.48 291.072 474.442 289.39 473.064 288.011C471.685 286.631 470.004 285.591 468.155 284.974L463.18 283.321C463.012 283.267 462.865 283.161 462.76 283.017C462.656 282.874 462.6 282.702 462.6 282.525C462.6 282.348 462.656 282.175 462.76 282.032C462.865 281.889 463.012 281.783 463.18 281.729L468.091 280.015C469.961 279.401 471.66 278.355 473.05 276.963C474.441 275.57 475.485 273.87 476.097 271.999L477.747 267.021C477.807 266.854 477.919 266.711 478.066 266.612C478.213 266.513 478.388 266.463 478.565 266.47C478.742 266.477 478.913 266.54 479.052 266.65C479.191 266.76 479.291 266.911 479.338 267.082Z" fill="#040814"/>
<path d="M459.078 241.836L459.883 244.234C460.183 245.146 460.692 245.975 461.37 246.653C462.049 247.332 462.877 247.842 463.788 248.143L466.215 248.95C466.297 248.977 466.368 249.029 466.418 249.098C466.469 249.168 466.496 249.252 466.496 249.338C466.496 249.424 466.469 249.508 466.418 249.577C466.368 249.647 466.297 249.699 466.215 249.726L463.787 250.532C462.884 250.833 462.064 251.34 461.392 252.013C460.72 252.686 460.214 253.507 459.914 254.411L459.109 256.839C459.082 256.921 459.03 256.992 458.961 257.042C458.891 257.092 458.807 257.119 458.721 257.119C458.635 257.119 458.551 257.092 458.482 257.042C458.412 256.992 458.36 256.921 458.333 256.839L457.497 254.441C457.196 253.538 456.69 252.718 456.017 252.045C455.345 251.372 454.525 250.864 453.623 250.563L451.196 249.757C451.114 249.73 451.042 249.679 450.991 249.609C450.941 249.539 450.913 249.455 450.913 249.368C450.913 249.282 450.941 249.198 450.991 249.128C451.042 249.058 451.114 249.007 451.196 248.98L453.592 248.144C454.504 247.845 455.333 247.335 456.011 246.655C456.689 245.976 457.198 245.147 457.497 244.234L458.302 241.806C458.331 241.724 458.386 241.654 458.457 241.606C458.529 241.558 458.614 241.533 458.701 241.537C458.787 241.54 458.871 241.571 458.938 241.624C459.006 241.678 459.055 241.752 459.078 241.836Z" fill="#040814"/>
<circle cx="1.16872" cy="1.16872" r="1.16872" transform="matrix(-1 0 0 1 491.429 256.34)" fill="#040814"/>
<circle cx="1.16872" cy="1.16872" r="1.16872" transform="matrix(-1 0 0 1 450.913 271.923)" fill="#040814"/>
<path d="M19.517 165.787L17.3991 172.098C16.6111 174.497 15.2708 176.677 13.4861 178.463C11.7014 180.25 9.52221 181.592 7.12409 182.381L0.739763 184.507C0.52467 184.577 0.337289 184.713 0.20442 184.896C0.0715508 185.08 0 185.3 0 185.526C0 185.753 0.0715508 185.973 0.20442 186.156C0.337289 186.34 0.52467 186.476 0.739763 186.546L7.12751 188.668C9.50265 189.459 11.6605 190.793 13.4294 192.565C15.1984 194.337 16.5296 196.497 17.3172 198.873L19.435 205.262C19.5062 205.477 19.6431 205.664 19.8265 205.796C20.0098 205.929 20.2302 206 20.4564 206C20.6825 206 20.9029 205.929 21.0862 205.796C21.2696 205.664 21.4066 205.477 21.4777 205.262L23.6776 198.952C24.4683 196.577 25.8011 194.418 27.5703 192.648C29.3394 190.877 31.4965 189.543 33.8706 188.75L40.255 186.628C40.4713 186.559 40.66 186.423 40.7939 186.239C40.9278 186.055 41 185.834 41 185.607C41 185.379 40.9278 185.158 40.7939 184.975C40.66 184.791 40.4713 184.655 40.255 184.585L33.9526 182.385C31.5528 181.597 29.3721 180.255 27.5871 178.468C25.802 176.681 24.4627 174.499 23.6776 172.098L21.5597 165.709C21.4824 165.494 21.339 165.31 21.1502 165.183C20.9614 165.056 20.7371 164.992 20.5096 165.001C20.2822 165.01 20.0634 165.09 19.8849 165.232C19.7065 165.373 19.5776 165.568 19.517 165.787Z" fill="white"/>
<path d="M45.5205 133.384L44.4874 136.462C44.103 137.633 43.4491 138.696 42.5786 139.568C41.708 140.439 40.645 141.094 39.4752 141.479L36.3609 142.515C36.2559 142.55 36.1645 142.616 36.0997 142.706C36.0349 142.795 36 142.903 36 143.013C36 143.123 36.0349 143.231 36.0997 143.32C36.1645 143.41 36.2559 143.476 36.3609 143.51L39.4768 144.545C40.6354 144.931 41.6881 145.582 42.5509 146.446C43.4138 147.311 44.0632 148.364 44.4474 149.524L45.4805 152.64C45.5152 152.745 45.582 152.836 45.6715 152.901C45.7609 152.965 45.8684 153 45.9787 153C46.089 153 46.1965 152.965 46.286 152.901C46.3754 152.836 46.4422 152.745 46.4769 152.64L47.55 149.562C47.9358 148.403 48.5859 147.35 49.4489 146.487C50.3119 145.623 51.3641 144.972 52.5223 144.585L55.6366 143.55C55.7421 143.517 55.8342 143.45 55.8995 143.36C55.9648 143.271 56 143.163 56 143.052C56 142.941 55.9648 142.833 55.8995 142.744C55.8342 142.654 55.7421 142.588 55.6366 142.554L52.5622 141.48C51.3916 141.096 50.3279 140.442 49.4571 139.57C48.5864 138.698 47.933 137.633 47.55 136.462L46.5169 133.346C46.4792 133.241 46.4093 133.151 46.3172 133.089C46.2251 133.027 46.1157 132.996 46.0047 133C45.8937 133.005 45.787 133.044 45.7 133.113C45.6129 133.182 45.5501 133.277 45.5205 133.384Z" fill="white"/>
<circle cx="5.5" cy="153.5" r="1.5" fill="white"/>
<circle cx="57.5" cy="173.5" r="1.5" fill="white"/>
</svg>
