<svg width="755" height="313" viewBox="0 0 755 313" fill="none" xmlns="http://www.w3.org/2000/svg">
<path d="M734.881 -20.951L417.15 -118.032C399.836 -123.323 381.155 -123.323 363.853 -118.032L46.1102 -20.951C19.2966 -12.7608 19.2966 22.5034 46.1102 30.6936L101.503 47.6177C89.3492 62.5594 81.8769 80.7863 81.1365 100.746C70.1673 106.999 62.4444 118.282 62.4444 131.751C62.4444 143.963 68.9143 154.237 78.2319 160.808L49.1515 290.944C46.6228 302.261 55.2797 313 66.9324 313H130.845C142.509 313 151.166 302.261 148.638 290.944L119.557 160.808C128.875 154.237 135.345 143.963 135.345 131.751C135.345 118.645 127.975 107.679 117.507 101.313C118.373 84.298 127.121 69.2543 141.074 59.7161L363.842 127.786C374.161 130.936 393.958 134.866 417.139 127.786L734.881 30.705C761.706 22.5035 761.706 -12.7494 734.881 -20.951ZM427.846 162.439C395.348 172.362 367.657 166.879 353.134 162.439L187.947 111.972L171.795 240.5C171.795 280.545 269.709 313 390.496 313C511.282 313 609.197 280.545 609.197 240.5L593.045 111.961L427.846 162.439Z" fill="white"/>
<path d="M19.517 81.7871L17.3991 88.0975C16.6111 90.4967 15.2708 92.6771 13.4861 94.4634C11.7014 96.2496 9.52221 97.5917 7.12409 98.3815L0.739763 100.507C0.52467 100.577 0.337289 100.713 0.20442 100.896C0.0715508 101.08 0 101.3 0 101.526C0 101.753 0.0715508 101.973 0.20442 102.156C0.337289 102.34 0.52467 102.476 0.739763 102.546L7.12751 104.668C9.50265 105.459 11.6605 106.793 13.4294 108.565C15.1984 110.337 16.5296 112.497 17.3172 114.873L19.435 121.262C19.5062 121.477 19.6431 121.664 19.8265 121.796C20.0098 121.929 20.2302 122 20.4564 122C20.6825 122 20.9029 121.929 21.0862 121.796C21.2696 121.664 21.4066 121.477 21.4777 121.262L23.6776 114.952C24.4683 112.577 25.8011 110.418 27.5703 108.648C29.3394 106.877 31.4965 105.543 33.8706 104.75L40.255 102.628C40.4713 102.559 40.66 102.423 40.7939 102.239C40.9278 102.055 41 101.834 41 101.607C41 101.379 40.9278 101.158 40.7939 100.975C40.66 100.791 40.4713 100.655 40.255 100.585L33.9526 98.3849C31.5528 97.5972 29.3721 96.2554 27.5871 94.4682C25.802 92.681 24.4627 90.4986 23.6776 88.0975L21.5597 81.7085C21.4824 81.4944 21.339 81.3104 21.1502 81.1831C20.9614 81.0559 20.7371 80.992 20.5096 81.0008C20.2822 81.0095 20.0634 81.0904 19.8849 81.2318C19.7065 81.3732 19.5776 81.5676 19.517 81.7871Z" fill="white"/>
<path d="M45.5205 49.3839L44.4874 52.4622C44.103 53.6325 43.4491 54.6962 42.5786 55.5675C41.708 56.4388 40.645 57.0935 39.4752 57.4788L36.3609 58.5154C36.2559 58.5497 36.1645 58.6162 36.0997 58.7056C36.0349 58.7949 36 58.9025 36 59.0129C36 59.1233 36.0349 59.2309 36.0997 59.3202C36.1645 59.4096 36.2559 59.4761 36.3609 59.5104L39.4768 60.5454C40.6354 60.9312 41.6881 61.5821 42.5509 62.4463C43.4138 63.3105 44.0632 64.3642 44.4474 65.5236L45.4805 68.6402C45.5152 68.7449 45.582 68.8361 45.6715 68.9006C45.7609 68.9652 45.8684 69 45.9787 69C46.089 69 46.1965 68.9652 46.286 68.9006C46.3754 68.8361 46.4422 68.7449 46.4769 68.6402L47.55 65.5619C47.9358 64.4033 48.5859 63.3505 49.4489 62.4867C50.3119 61.6229 51.3641 60.972 52.5223 60.5854L55.6366 59.5504C55.7421 59.5165 55.8342 59.45 55.8995 59.3605C55.9648 59.2709 56 59.1629 56 59.0521C56 58.9412 55.9648 58.8332 55.8995 58.7437C55.8342 58.6541 55.7421 58.5876 55.6366 58.5538L52.5622 57.4804C51.3916 57.0962 50.3279 56.4417 49.4571 55.5699C48.5864 54.6981 47.933 53.6335 47.55 52.4622L46.5169 49.3456C46.4792 49.2411 46.4093 49.1514 46.3172 49.0893C46.2251 49.0273 46.1157 48.9961 46.0047 49.0004C45.8937 49.0047 45.787 49.0441 45.7 49.1131C45.6129 49.182 45.5501 49.2769 45.5205 49.3839Z" fill="white"/>
<circle cx="5.5" cy="69.5" r="1.5" fill="white"/>
<circle cx="57.5" cy="89.5" r="1.5" fill="white"/>
<path d="M564.483 220.787L566.601 227.098C567.389 229.497 568.729 231.677 570.514 233.463C572.299 235.25 574.478 236.592 576.876 237.381L583.26 239.507C583.475 239.577 583.663 239.713 583.796 239.896C583.928 240.08 584 240.3 584 240.526C584 240.753 583.928 240.973 583.796 241.156C583.663 241.34 583.475 241.476 583.26 241.546L576.872 243.668C574.497 244.459 572.339 245.793 570.571 247.565C568.802 249.337 567.47 251.497 566.683 253.873L564.565 260.262C564.494 260.477 564.357 260.664 564.174 260.796C563.99 260.929 563.77 261 563.544 261C563.317 261 563.097 260.929 562.914 260.796C562.73 260.664 562.593 260.477 562.522 260.262L560.322 253.952C559.532 251.577 558.199 249.418 556.43 247.648C554.661 245.877 552.503 244.543 550.129 243.75L543.745 241.628C543.529 241.559 543.34 241.423 543.206 241.239C543.072 241.055 543 240.834 543 240.607C543 240.379 543.072 240.158 543.206 239.975C543.34 239.791 543.529 239.655 543.745 239.585L550.047 237.385C552.447 236.597 554.628 235.255 556.413 233.468C558.198 231.681 559.537 229.499 560.322 227.098L562.44 220.709C562.518 220.494 562.661 220.31 562.85 220.183C563.039 220.056 563.263 219.992 563.49 220.001C563.718 220.01 563.937 220.09 564.115 220.232C564.294 220.373 564.422 220.568 564.483 220.787Z" fill="#040814"/>
<path d="M538.48 188.384L539.513 191.462C539.897 192.633 540.551 193.696 541.421 194.568C542.292 195.439 543.355 196.094 544.525 196.479L547.639 197.515C547.744 197.55 547.835 197.616 547.9 197.706C547.965 197.795 548 197.903 548 198.013C548 198.123 547.965 198.231 547.9 198.32C547.835 198.41 547.744 198.476 547.639 198.51L544.523 199.545C543.365 199.931 542.312 200.582 541.449 201.446C540.586 202.311 539.937 203.364 539.553 204.524L538.52 207.64C538.485 207.745 538.418 207.836 538.329 207.901C538.239 207.965 538.132 208 538.021 208C537.911 208 537.803 207.965 537.714 207.901C537.625 207.836 537.558 207.745 537.523 207.64L536.45 204.562C536.064 203.403 535.414 202.35 534.551 201.487C533.688 200.623 532.636 199.972 531.478 199.585L528.363 198.55C528.258 198.517 528.166 198.45 528.101 198.36C528.035 198.271 528 198.163 528 198.052C528 197.941 528.035 197.833 528.101 197.744C528.166 197.654 528.258 197.588 528.363 197.554L531.438 196.48C532.608 196.096 533.672 195.442 534.543 194.57C535.414 193.698 536.067 192.633 536.45 191.462L537.483 188.346C537.521 188.241 537.591 188.151 537.683 188.089C537.775 188.027 537.884 187.996 537.995 188C538.106 188.005 538.213 188.044 538.3 188.113C538.387 188.182 538.45 188.277 538.48 188.384Z" fill="#040814"/>
<circle cx="1.5" cy="1.5" r="1.5" transform="matrix(-1 0 0 1 580 207)" fill="#040814"/>
<circle cx="1.5" cy="1.5" r="1.5" transform="matrix(-1 0 0 1 528 227)" fill="#040814"/>
</svg>
