<svg width="42" height="24" viewBox="0 0 42 24" fill="none" xmlns="http://www.w3.org/2000/svg">
<path d="M0.924485 0.917758C1.51661 0.330118 2.3196 0 3.15686 0C3.99413 0 4.79712 0.330118 5.38924 0.917758L21.0191 16.4338L36.6489 0.917758C37.2444 0.346772 38.042 0.0308244 38.8699 0.0379663C39.6978 0.0451081 40.4897 0.374767 41.0752 0.955941C41.6606 1.53711 41.9927 2.3233 41.9999 3.14517C42.0071 3.96704 41.6888 4.75884 41.1136 5.35003L23.2514 23.0822C22.6593 23.6699 21.8563 24 21.0191 24C20.1818 24 19.3788 23.6699 18.7867 23.0822L0.924485 5.35003C0.332538 4.76221 0 3.96507 0 3.13389C0 2.30272 0.332538 1.50557 0.924485 0.917758Z" fill="#040814"/>
</svg>
