<svg width="40" height="53" viewBox="0 0 40 53" fill="none" xmlns="http://www.w3.org/2000/svg">
<path d="M38.6171 9.94998L21.3829 0.316852C20.6225 -0.105617 19.3817 -0.105617 18.6171 0.316852L1.38291 9.94998C0.618342 10.3725 0 11.4349 0 12.3091V24.5398C0 24.5649 0.00835615 24.5858 0.00835615 24.6109V53H13.9419V47.7672C13.9419 46.6546 14.8485 45.7469 15.9557 45.7469H24.0443C24.5791 45.748 25.0918 45.9612 25.47 46.3399C25.8482 46.7185 26.0611 47.2318 26.0623 47.7672V53H40V12.3091C40 11.4349 39.3775 10.3766 38.6171 9.94998ZM9.601 39.9788H4.50804V33.8258H9.601V39.9788ZM9.601 29.1995H4.50804V23.0465H9.601V29.1995ZM18.1283 39.9788H13.0353V33.8258H18.1283V39.9788ZM18.1283 29.1995H13.0353V23.0465H18.1283V29.1995ZM21.2701 13.4176V13.3883L21.2409 13.267L21.1573 13.108C21.0403 12.9407 20.8857 12.9742 20.7186 12.9365L20.4888 12.9073C20.1295 12.9115 19.7619 12.9198 19.4025 12.924L19.2939 12.9365C19.1268 12.9742 18.9722 12.9407 18.8552 13.108L18.7675 13.267L18.7341 13.4092V13.4218C18.7466 14.0576 18.7591 14.6933 18.7174 15.3291C18.6798 15.8102 18.567 16.2075 18.0363 16.4C17.7146 16.5171 17.2384 16.5045 16.8832 16.4711C15.1828 16.3247 15.5421 14.9192 15.5296 13.8902C15.5254 13.7355 15.5212 13.5807 15.5212 13.4259C15.5128 12.7023 15.5087 11.9829 15.4836 11.2718C15.4711 10.9455 15.4627 10.6192 15.4627 10.293C15.4627 9.9207 15.446 9.54843 15.492 9.18034C15.5254 8.84989 15.4752 8.49853 15.5504 8.17645C15.6424 7.76653 15.7176 7.15583 16.0978 6.89649C16.7621 6.44475 17.8901 6.49494 18.4416 7.10564C18.5711 7.24786 18.6463 7.44863 18.6923 7.68287C18.8093 8.28102 18.7215 9.07158 18.7257 9.52333V9.70319L18.7341 9.71574L18.7717 9.89561L18.8594 10.0546C18.9764 10.2219 19.131 10.1884 19.2981 10.2261L19.4819 10.247C19.7577 10.2428 20.0334 10.247 20.2966 10.2344C20.4303 10.2302 20.5557 10.2302 20.6852 10.2302L20.7186 10.2261C20.8857 10.1884 21.0445 10.2219 21.1573 10.0546L21.2409 9.89561L21.2826 9.71574L21.2868 9.71156V9.52333C21.2952 9.07158 21.1991 8.28102 21.3202 7.68287C21.3662 7.44863 21.4414 7.24786 21.5709 7.10564C22.1182 6.49494 23.2505 6.44475 23.9106 6.89649C24.2908 7.15583 24.366 7.77071 24.4579 8.17645C24.5331 8.49853 24.483 8.84989 24.5164 9.18034C24.5582 9.55261 24.5456 9.9207 24.5456 10.293C24.5456 10.6192 24.5415 10.9455 24.5248 11.2718C24.4955 11.9829 24.4913 12.7023 24.4872 13.4259C24.4872 13.5807 24.483 13.7355 24.4788 13.8902C24.4663 14.9234 24.8256 16.3247 23.121 16.4711C22.7658 16.5045 22.2937 16.5171 21.972 16.4C21.4414 16.2117 21.3244 15.8102 21.291 15.3291C21.245 14.6892 21.2534 14.0534 21.2701 13.4176ZM26.6597 39.9788H21.5667V33.8258H26.6597V39.9788ZM26.6597 29.1995H21.5667V23.0465H26.6597V29.1995ZM35.1911 39.9788H30.0982V33.8258H35.1911V39.9788ZM35.1911 29.1995H30.0982V23.0465H35.1911V29.1995Z" fill="#DFE0E0"/>
</svg>
