<svg width="47" height="62" viewBox="0 0 47 62" fill="none" xmlns="http://www.w3.org/2000/svg">
<path d="M45.3751 11.6396L25.1249 0.370657C24.2315 -0.123552 22.7734 -0.123552 21.8751 0.370657L1.62492 11.6396C0.726552 12.1338 0 13.3767 0 14.3993V28.7069C0 28.7363 0.00981848 28.7608 0.00981848 28.7901V62H16.3818V55.8787C16.3818 54.5771 17.447 53.5153 18.748 53.5153H28.252C28.8805 53.5166 29.4828 53.766 29.9272 54.2089C30.3716 54.6519 30.6218 55.2522 30.6231 55.8787V62H47V14.3993C47 13.3767 46.2685 12.1387 45.3751 11.6396ZM11.2812 46.7676H5.29695V39.5698H11.2812V46.7676ZM11.2812 34.1579H5.29695V26.9601H11.2812V34.1579ZM21.3007 46.7676H15.3165V39.5698H21.3007V46.7676ZM21.3007 34.1579H15.3165V26.9601H21.3007V34.1579ZM24.9924 15.696V15.6618L24.958 15.5199L24.8598 15.3339C24.7224 15.1382 24.5407 15.1774 24.3444 15.1333L24.0744 15.0991C23.6522 15.104 23.2202 15.1137 22.798 15.1186L22.6704 15.1333C22.474 15.1774 22.2924 15.1382 22.1549 15.3339L22.0518 15.5199L22.0125 15.6862V15.7009C22.0273 16.4447 22.042 17.1884 21.9929 17.9322C21.9487 18.4949 21.8162 18.9598 21.1927 19.1849C20.8147 19.3219 20.2551 19.3072 19.8378 19.268C17.8398 19.0968 18.262 17.4527 18.2472 16.249C18.2423 16.0679 18.2374 15.8869 18.2374 15.7058C18.2276 14.8593 18.2227 14.0177 18.1932 13.1858C18.1785 12.8042 18.1687 12.4225 18.1687 12.0408C18.1687 11.6054 18.149 11.1699 18.203 10.7393C18.2423 10.3527 18.1834 9.94168 18.2718 9.5649C18.3798 9.08537 18.4681 8.37097 18.9149 8.0676C19.6954 7.53914 21.0209 7.59785 21.6689 8.31225C21.8211 8.47862 21.9094 8.71349 21.9634 8.98751C22.1009 9.68723 21.9978 10.612 22.0027 11.1405V11.3509L22.0125 11.3656L22.0567 11.576L22.1598 11.7619C22.2973 11.9577 22.4789 11.9185 22.6753 11.9626L22.8913 11.987C23.2153 11.9821 23.5393 11.987 23.8485 11.9723C24.0056 11.9674 24.1529 11.9674 24.3051 11.9674L24.3444 11.9626C24.5407 11.9185 24.7273 11.9577 24.8598 11.7619L24.958 11.576L25.0071 11.3656L25.012 11.3607V11.1405C25.0218 10.612 24.9089 9.68723 25.0513 8.98751C25.1053 8.71349 25.1936 8.47862 25.3458 8.31225C25.9889 7.59785 27.3193 7.53914 28.0949 8.0676C28.5417 8.37097 28.63 9.09027 28.738 9.5649C28.8264 9.94168 28.7675 10.3527 28.8068 10.7393C28.8559 11.1748 28.8411 11.6054 28.8411 12.0408C28.8411 12.4225 28.8362 12.8042 28.8166 13.1858C28.7822 14.0177 28.7773 14.8593 28.7724 15.7058C28.7724 15.8869 28.7675 16.0679 28.7626 16.249C28.7479 17.4576 29.17 19.0968 27.1671 19.268C26.7498 19.3072 26.1951 19.3219 25.8171 19.1849C25.1936 18.9647 25.0562 18.4949 25.0169 17.9322C24.9629 17.1836 24.9727 16.4398 24.9924 15.696ZM31.3252 46.7676H25.3409V39.5698H31.3252V46.7676ZM31.3252 34.1579H25.3409V26.9601H31.3252V34.1579ZM41.3496 46.7676H35.3654V39.5698H41.3496V46.7676ZM41.3496 34.1579H35.3654V26.9601H41.3496V34.1579Z" fill="#040814" fill-opacity="0.8" style="mix-blend-mode:plus-darker"/>
</svg>
