<svg width="35" height="45" viewBox="0 0 35 45" fill="none" xmlns="http://www.w3.org/2000/svg">
<path d="M17.5 0.659668C12.8604 0.665029 8.41238 2.47256 5.13168 5.68575C1.85099 8.89895 0.00548446 13.2554 1.09839e-05 17.7996C-0.00425478 21.5129 1.23409 25.1252 3.52546 28.0835C3.52546 28.0835 4.00274 28.699 4.08069 28.7878L17.5 44.2885L30.9257 28.78C30.9957 28.6974 31.4745 28.0835 31.4745 28.0835L31.4761 28.0789C33.7659 25.1216 35.0037 21.5111 35 17.7996C34.9945 13.2554 33.149 8.89895 29.8683 5.68575C26.5876 2.47256 22.1396 0.665029 17.5 0.659668ZM17.5 24.0323C16.2414 24.0323 15.0111 23.6667 13.9646 22.9819C12.9181 22.297 12.1024 21.3236 11.6208 20.1847C11.1391 19.0459 11.0131 17.7927 11.2586 16.5836C11.5042 15.3746 12.1103 14.2641 13.0002 13.3924C13.8902 12.5207 15.0241 11.9271 16.2585 11.6866C17.4929 11.4462 18.7725 11.5696 19.9353 12.0413C21.0981 12.5131 22.0919 13.3119 22.7912 14.3369C23.4904 15.3618 23.8636 16.5669 23.8636 17.7996C23.8615 19.452 23.1904 21.0361 21.9974 22.2045C20.8045 23.3729 19.1871 24.0302 17.5 24.0323Z" fill="#040814"/>
</svg>
