<svg width="35" height="44" viewBox="0 0 35 44" fill="none" xmlns="http://www.w3.org/2000/svg">
<path d="M17.5 0C12.8604 0.00536085 8.41238 1.81289 5.13168 5.02608C1.85099 8.23928 0.00548446 12.5958 1.09839e-05 17.1399C-0.00425478 20.8532 1.23409 24.4655 3.52546 27.4239C3.52546 27.4239 4.00274 28.0393 4.08069 28.1282L17.5 43.6289L30.9257 28.1204C30.9957 28.0378 31.4745 27.4239 31.4745 27.4239L31.4761 27.4192C33.7659 24.4619 35.0037 20.8514 35 17.1399C34.9945 12.5958 33.149 8.23928 29.8683 5.02608C26.5876 1.81289 22.1396 0.00536085 17.5 0ZM17.5 23.3726C16.2414 23.3726 15.0111 23.0071 13.9646 22.3222C12.9181 21.6374 12.1024 20.6639 11.6208 19.5251C11.1391 18.3862 11.0131 17.133 11.2586 15.924C11.5042 14.7149 12.1103 13.6044 13.0002 12.7327C13.8902 11.8611 15.0241 11.2675 16.2585 11.027C17.4929 10.7865 18.7725 10.9099 19.9353 11.3817C21.0981 11.8534 22.0919 12.6523 22.7912 13.6772C23.4904 14.7022 23.8636 15.9072 23.8636 17.1399C23.8615 18.7923 23.1904 20.3764 21.9974 21.5448C20.8045 22.7132 19.1871 23.3705 17.5 23.3726Z" fill="white"/>
</svg>
