<svg width="62" height="68" viewBox="0 0 62 68" fill="none" xmlns="http://www.w3.org/2000/svg">
<path d="M42.483 27.7871L44.6009 34.0975C45.3889 36.4967 46.7292 38.6771 48.5139 40.4634C50.2986 42.2496 52.4778 43.5917 54.8759 44.3815L61.2602 46.5066C61.4753 46.5768 61.6627 46.7133 61.7956 46.8965C61.9284 47.0796 62 47.3002 62 47.5265C62 47.7528 61.9284 47.9733 61.7956 48.1565C61.6627 48.3396 61.4753 48.4761 61.2602 48.5463L54.8725 50.668C52.4973 51.4589 50.3395 52.7933 48.5706 54.565C46.8016 56.3366 45.4704 58.4967 44.6828 60.8734L42.565 67.2624C42.4938 67.4771 42.3569 67.6639 42.1735 67.7963C41.9902 67.9287 41.7698 68 41.5436 68C41.3175 68 41.0971 67.9287 40.9138 67.7963C40.7304 67.6639 40.5934 67.4771 40.5223 67.2624L38.3224 60.952C37.5317 58.5768 36.1989 56.4184 34.4297 54.6477C32.6606 52.877 30.5035 51.5425 28.1294 50.75L21.745 48.6283C21.5287 48.5589 21.34 48.4226 21.2061 48.239C21.0722 48.0554 21 47.834 21 47.6067C21 47.3795 21.0722 47.1581 21.2061 46.9745C21.34 46.7909 21.5287 46.6546 21.745 46.5852L28.0474 44.3849C30.4472 43.5972 32.6279 42.2554 34.4129 40.4682C36.198 38.681 37.5373 36.4986 38.3224 34.0975L40.4403 27.7085C40.5176 27.4944 40.661 27.3104 40.8498 27.1831C41.0386 27.0559 41.2629 26.992 41.4904 27.0008C41.7178 27.0095 41.9366 27.0904 42.1151 27.2318C42.2935 27.3732 42.4224 27.5676 42.483 27.7871Z" fill="white"/>
<path d="M17.4795 0.383945L18.5126 3.46221C18.897 4.63252 19.5509 5.69617 20.4214 6.56751C21.292 7.43884 22.355 8.09351 23.5248 8.47877L26.6391 9.51542C26.7441 9.54967 26.8355 9.61624 26.9003 9.70559C26.9651 9.79495 27 9.90251 27 10.0129C27 10.1233 26.9651 10.2309 26.9003 10.3202C26.8355 10.4096 26.7441 10.4761 26.6391 10.5104L23.5232 11.5454C22.3646 11.9312 21.3119 12.5821 20.4491 13.4463C19.5862 14.3105 18.9368 15.3642 18.5526 16.5236L17.5195 19.6402C17.4848 19.7449 17.418 19.8361 17.3285 19.9006C17.2391 19.9652 17.1316 20 17.0213 20C16.911 20 16.8035 19.9652 16.714 19.9006C16.6246 19.8361 16.5578 19.7449 16.5231 19.6402L15.45 16.5619C15.0642 15.4033 14.4141 14.3505 13.5511 13.4867C12.6881 12.6229 11.6359 11.972 10.4777 11.5854L7.36344 10.5504C7.2579 10.5165 7.16583 10.45 7.10052 10.3605C7.0352 10.2709 7 10.1629 7 10.0521C7 9.94122 7.0352 9.83322 7.10052 9.74366C7.16583 9.6541 7.2579 9.5876 7.36344 9.55375L10.4378 8.48044C11.6084 8.09619 12.6721 7.44168 13.5429 6.56987C14.4136 5.69807 15.067 4.63346 15.45 3.46221L16.4831 0.345612C16.5208 0.241149 16.5907 0.151393 16.6828 0.0893309C16.7749 0.0272686 16.8843 -0.00388169 16.9953 0.000386806C17.1063 0.00465531 17.213 0.044121 17.3 0.113075C17.3871 0.182028 17.4499 0.276893 17.4795 0.383945Z" fill="white"/>
<circle cx="1.5" cy="1.5" r="1.5" transform="matrix(-1 0 0 1 3 25)" fill="white"/>
<circle cx="1.5" cy="1.5" r="1.5" transform="matrix(-1 0 0 1 57 20)" fill="white"/>
</svg>
