<svg width="23" height="45" viewBox="0 0 23 45" fill="none" xmlns="http://www.w3.org/2000/svg">
<circle cx="1.5" cy="1.5" r="1.5" transform="matrix(1 0 0 -1 0 3)" fill="white"/>
<path d="M12.5205 44.6161L11.4874 41.5378C11.103 40.3675 10.4491 39.3038 9.57857 38.4325C8.70798 37.5612 7.64498 36.9065 6.47517 36.5212L3.36086 35.4846C3.25594 35.4503 3.16453 35.3838 3.09972 35.2944C3.0349 35.2051 3 35.0975 3 34.9871C3 34.8767 3.0349 34.7691 3.09972 34.6798C3.16453 34.5904 3.25594 34.5239 3.36086 34.4896L6.47683 33.4546C7.63544 33.0688 8.68805 32.4179 9.55095 31.5537C10.4138 30.6895 11.0632 29.6358 11.4474 28.4764L12.4805 25.3598C12.5152 25.2551 12.582 25.1639 12.6715 25.0994C12.7609 25.0348 12.8684 25 12.9787 25C13.089 25 13.1965 25.0348 13.286 25.0994C13.3754 25.1639 13.4422 25.2551 13.4769 25.3598L14.55 28.4381C14.9358 29.5967 15.5859 30.6495 16.4489 31.5133C17.3119 32.3771 18.3641 33.028 19.5223 33.4146L22.6366 34.4496C22.7421 34.4835 22.8342 34.55 22.8995 34.6395C22.9648 34.7291 23 34.8371 23 34.9479C23 35.0588 22.9648 35.1668 22.8995 35.2563C22.8342 35.3459 22.7421 35.4124 22.6366 35.4462L19.5622 36.5196C18.3916 36.9038 17.3279 37.5583 16.4571 38.4301C15.5864 39.3019 14.933 40.3665 14.55 41.5378L13.5169 44.6544C13.4792 44.7589 13.4093 44.8486 13.3172 44.9107C13.2251 44.9727 13.1157 45.0039 13.0047 44.9996C12.8937 44.9953 12.787 44.9559 12.7 44.8869C12.6129 44.818 12.5501 44.7231 12.5205 44.6161Z" fill="white"/>
</svg>
