<svg width="45" height="55" viewBox="0 0 45 55" fill="none" xmlns="http://www.w3.org/2000/svg">
<path d="M29.7476 24.7024L31.3432 29.4568C31.9369 31.2644 32.9468 32.9072 34.2914 34.253C35.636 35.5988 37.2779 36.61 39.0847 37.205L43.8948 38.8061C44.0568 38.859 44.198 38.9619 44.2981 39.0999C44.3982 39.2379 44.4521 39.404 44.4521 39.5745C44.4521 39.745 44.3982 39.9112 44.2981 40.0492C44.198 40.1872 44.0568 40.29 43.8948 40.3429L39.0821 41.9414C37.2926 42.5373 35.6668 43.5427 34.3341 44.8775C33.0013 46.2123 31.9984 47.8398 31.405 49.6304L29.8093 54.4441C29.7557 54.6058 29.6525 54.7466 29.5144 54.8463C29.3762 54.9461 29.2102 54.9998 29.0398 54.9998C28.8694 54.9998 28.7034 54.9461 28.5652 54.8463C28.4271 54.7466 28.3239 54.6058 28.2703 54.4441L26.6129 49.6896C26.0171 47.9001 25.013 46.274 23.68 44.9398C22.3471 43.6057 20.7219 42.6003 18.9332 42.0032L14.1231 40.4047C13.9601 40.3524 13.8179 40.2497 13.717 40.1113C13.6161 39.973 13.5617 39.8062 13.5617 39.635C13.5617 39.4638 13.6161 39.297 13.717 39.1587C13.8179 39.0203 13.9601 38.9176 14.1231 38.8653L18.8714 37.2076C20.6795 36.6141 22.3224 35.6032 23.6674 34.2567C25.0123 32.9102 26.0213 31.2659 26.6129 29.4568L28.2085 24.6432C28.2668 24.4818 28.3748 24.3432 28.5171 24.2473C28.6593 24.1515 28.8283 24.1034 28.9997 24.11C29.1711 24.1166 29.3359 24.1775 29.4704 24.284C29.6048 24.3905 29.7019 24.537 29.7476 24.7024Z" fill="white"/>
<path d="M10.1561 0.289274L10.9345 2.60852C11.2241 3.49025 11.7167 4.29164 12.3726 4.94812C13.0286 5.60461 13.8295 6.09785 14.7108 6.38812L17.0572 7.16915C17.1363 7.19496 17.2051 7.24511 17.254 7.31243C17.3028 7.37975 17.3291 7.4608 17.3291 7.54397C17.3291 7.62714 17.3028 7.70819 17.254 7.77551C17.2051 7.84283 17.1363 7.89298 17.0572 7.91879L14.7096 8.69857C13.8366 8.98925 13.0436 9.47966 12.3935 10.1308C11.7433 10.7819 11.2541 11.5758 10.9646 12.4493L10.1863 14.7974C10.1601 14.8763 10.1098 14.945 10.0424 14.9936C9.975 15.0423 9.894 15.0685 9.81089 15.0685C9.72778 15.0685 9.64678 15.0423 9.5794 14.9936C9.51201 14.945 9.46167 14.8763 9.43552 14.7974L8.62702 12.4782C8.3364 11.6052 7.84659 10.812 7.19637 10.1612C6.54615 9.51041 5.75338 9.01997 4.88083 8.72871L2.53443 7.94893C2.45491 7.92342 2.38555 7.87332 2.33634 7.80584C2.28713 7.73836 2.26061 7.657 2.26061 7.57348C2.26061 7.48996 2.28713 7.40859 2.33634 7.34112C2.38555 7.27364 2.45491 7.22354 2.53443 7.19803L4.8507 6.38937C5.73268 6.09987 6.53413 5.60674 7.19018 4.9499C7.84623 4.29307 8.33846 3.49096 8.62702 2.60852L9.40539 0.260393C9.4338 0.181687 9.4865 0.114063 9.55588 0.0673041C9.62526 0.0205448 9.70772 -0.00292456 9.79132 0.000291429C9.87492 0.00350742 9.95532 0.0332418 10.0209 0.0851931C10.0865 0.137144 10.1339 0.208618 10.1561 0.289274Z" fill="white"/>
<circle cx="1.13014" cy="1.13014" r="1.13014" transform="matrix(-1 0 0 1 41.4385 14.3149)" fill="white"/>
<circle cx="1.13014" cy="1.13014" r="1.13014" transform="matrix(-1 0 0 1 2.26074 29.3838)" fill="white"/>
</svg>
