<svg width="28" height="40" viewBox="0 0 28 40" fill="none" xmlns="http://www.w3.org/2000/svg">
<circle cx="1.5" cy="1.5" r="1.5" transform="matrix(-1 0 0 1 28 37)" fill="white"/>
<path d="M10.4795 0.383945L11.5126 3.46221C11.897 4.63252 12.5509 5.69617 13.4214 6.56751C14.292 7.43884 15.355 8.09351 16.5248 8.47877L19.6391 9.51542C19.7441 9.54967 19.8355 9.61624 19.9003 9.70559C19.9651 9.79495 20 9.90251 20 10.0129C20 10.1233 19.9651 10.2309 19.9003 10.3202C19.8355 10.4096 19.7441 10.4761 19.6391 10.5104L16.5232 11.5454C15.3646 11.9312 14.3119 12.5821 13.4491 13.4463C12.5862 14.3105 11.9368 15.3642 11.5526 16.5236L10.5195 19.6402C10.4848 19.7449 10.418 19.8361 10.3285 19.9006C10.2391 19.9652 10.1316 20 10.0213 20C9.91097 20 9.80346 19.9652 9.71403 19.9006C9.62459 19.8361 9.55777 19.7449 9.52306 19.6402L8.44997 16.5619C8.06423 15.4033 7.41412 14.3505 6.5511 13.4867C5.68808 12.6229 4.63585 11.972 3.47774 11.5854L0.363436 10.5504C0.257896 10.5165 0.165833 10.45 0.100515 10.3605C0.0351963 10.2709 0 10.1629 0 10.0521C0 9.94122 0.0351963 9.83322 0.100515 9.74366C0.165833 9.6541 0.257896 9.5876 0.363436 9.55375L3.43775 8.48044C4.60838 8.09619 5.67212 7.44168 6.54288 6.56987C7.41365 5.69807 8.06696 4.63346 8.44997 3.46221L9.48307 0.345612C9.52078 0.241149 9.59073 0.151393 9.68282 0.0893309C9.77491 0.0272686 9.88435 -0.00388169 9.99531 0.000386806C10.1063 0.00465531 10.213 0.044121 10.3 0.113075C10.3871 0.182028 10.4499 0.276893 10.4795 0.383945Z" fill="white"/>
</svg>
