<svg width="59" height="73" viewBox="0 0 59 73" fill="none" xmlns="http://www.w3.org/2000/svg">
<path d="M19.517 32.7871L17.3991 39.0975C16.6111 41.4967 15.2708 43.6771 13.4861 45.4634C11.7014 47.2496 9.52221 48.5917 7.12409 49.3815L0.739763 51.5066C0.52467 51.5768 0.337289 51.7133 0.20442 51.8965C0.0715508 52.0796 0 52.3002 0 52.5265C0 52.7528 0.0715508 52.9733 0.20442 53.1565C0.337289 53.3396 0.52467 53.4761 0.739763 53.5463L7.12751 55.668C9.50265 56.4589 11.6605 57.7933 13.4294 59.565C15.1984 61.3366 16.5296 63.4967 17.3172 65.8734L19.435 72.2624C19.5062 72.4771 19.6431 72.6639 19.8265 72.7963C20.0098 72.9287 20.2302 73 20.4564 73C20.6825 73 20.9029 72.9287 21.0862 72.7963C21.2696 72.6639 21.4066 72.4771 21.4777 72.2624L23.6776 65.952C24.4683 63.5768 25.8011 61.4184 27.5703 59.6477C29.3394 57.877 31.4965 56.5425 33.8706 55.75L40.255 53.6283C40.4713 53.5589 40.66 53.4226 40.7939 53.239C40.9278 53.0554 41 52.834 41 52.6067C41 52.3795 40.9278 52.1581 40.7939 51.9745C40.66 51.7909 40.4713 51.6546 40.255 51.5852L33.9526 49.3849C31.5528 48.5972 29.3721 47.2554 27.5871 45.4682C25.802 43.681 24.4627 41.4986 23.6776 39.0975L21.5597 32.7085C21.4824 32.4944 21.339 32.3104 21.1502 32.1831C20.9614 32.0559 20.7371 31.992 20.5096 32.0008C20.2822 32.0095 20.0634 32.0904 19.8849 32.2318C19.7065 32.3732 19.5776 32.5676 19.517 32.7871Z" fill="white"/>
<path d="M45.5205 0.383945L44.4874 3.46221C44.103 4.63252 43.4491 5.69617 42.5786 6.56751C41.708 7.43884 40.645 8.09351 39.4752 8.47877L36.3609 9.51542C36.2559 9.54967 36.1645 9.61624 36.0997 9.70559C36.0349 9.79495 36 9.90251 36 10.0129C36 10.1233 36.0349 10.2309 36.0997 10.3202C36.1645 10.4096 36.2559 10.4761 36.3609 10.5104L39.4768 11.5454C40.6354 11.9312 41.6881 12.5821 42.5509 13.4463C43.4138 14.3105 44.0632 15.3642 44.4474 16.5236L45.4805 19.6402C45.5152 19.7449 45.582 19.8361 45.6715 19.9006C45.7609 19.9652 45.8684 20 45.9787 20C46.089 20 46.1965 19.9652 46.286 19.9006C46.3754 19.8361 46.4422 19.7449 46.4769 19.6402L47.55 16.5619C47.9358 15.4033 48.5859 14.3505 49.4489 13.4867C50.3119 12.6229 51.3641 11.972 52.5223 11.5854L55.6366 10.5504C55.7421 10.5165 55.8342 10.45 55.8995 10.3605C55.9648 10.2709 56 10.1629 56 10.0521C56 9.94122 55.9648 9.83322 55.8995 9.74366C55.8342 9.6541 55.7421 9.5876 55.6366 9.55375L52.5622 8.48044C51.3916 8.09619 50.3279 7.44168 49.4571 6.56987C48.5864 5.69807 47.933 4.63346 47.55 3.46221L46.5169 0.345612C46.4792 0.241149 46.4093 0.151393 46.3172 0.0893309C46.2251 0.0272686 46.1157 -0.00388169 46.0047 0.000386806C45.8937 0.00465531 45.787 0.044121 45.7 0.113075C45.6129 0.182028 45.5501 0.276893 45.5205 0.383945Z" fill="white"/>
<circle cx="5.5" cy="20.5" r="1.5" fill="white"/>
<circle cx="57.5" cy="40.5" r="1.5" fill="white"/>
</svg>
