<svg width="59" height="73" viewBox="0 0 59 73" fill="none" xmlns="http://www.w3.org/2000/svg">
<path d="M39.483 32.7871L41.6009 39.0975C42.3889 41.4967 43.7292 43.6771 45.5139 45.4634C47.2986 47.2496 49.4778 48.5917 51.8759 49.3815L58.2602 51.5066C58.4753 51.5768 58.6627 51.7133 58.7956 51.8965C58.9284 52.0796 59 52.3002 59 52.5265C59 52.7528 58.9284 52.9733 58.7956 53.1565C58.6627 53.3396 58.4753 53.4761 58.2602 53.5463L51.8725 55.668C49.4973 56.4589 47.3395 57.7933 45.5706 59.565C43.8016 61.3366 42.4704 63.4967 41.6828 65.8734L39.565 72.2624C39.4938 72.4771 39.3569 72.6639 39.1735 72.7963C38.9902 72.9287 38.7698 73 38.5436 73C38.3175 73 38.0971 72.9287 37.9138 72.7963C37.7304 72.6639 37.5934 72.4771 37.5223 72.2624L35.3224 65.952C34.5317 63.5768 33.1989 61.4184 31.4297 59.6477C29.6606 57.877 27.5035 56.5425 25.1294 55.75L18.745 53.6283C18.5287 53.5589 18.34 53.4226 18.2061 53.239C18.0722 53.0554 18 52.834 18 52.6067C18 52.3795 18.0722 52.1581 18.2061 51.9745C18.34 51.7909 18.5287 51.6546 18.745 51.5852L25.0474 49.3849C27.4472 48.5972 29.6279 47.2554 31.4129 45.4682C33.198 43.681 34.5373 41.4986 35.3224 39.0975L37.4403 32.7085C37.5176 32.4944 37.661 32.3104 37.8498 32.1831C38.0386 32.0559 38.2629 31.992 38.4904 32.0008C38.7178 32.0095 38.9366 32.0904 39.1151 32.2318C39.2935 32.3732 39.4224 32.5676 39.483 32.7871Z" fill="white"/>
<path d="M13.4795 0.383945L14.5126 3.46221C14.897 4.63252 15.5509 5.69617 16.4214 6.56751C17.292 7.43884 18.355 8.09351 19.5248 8.47877L22.6391 9.51542C22.7441 9.54967 22.8355 9.61624 22.9003 9.70559C22.9651 9.79495 23 9.90251 23 10.0129C23 10.1233 22.9651 10.2309 22.9003 10.3202C22.8355 10.4096 22.7441 10.4761 22.6391 10.5104L19.5232 11.5454C18.3646 11.9312 17.3119 12.5821 16.4491 13.4463C15.5862 14.3105 14.9368 15.3642 14.5526 16.5236L13.5195 19.6402C13.4848 19.7449 13.418 19.8361 13.3285 19.9006C13.2391 19.9652 13.1316 20 13.0213 20C12.911 20 12.8035 19.9652 12.714 19.9006C12.6246 19.8361 12.5578 19.7449 12.5231 19.6402L11.45 16.5619C11.0642 15.4033 10.4141 14.3505 9.5511 13.4867C8.68808 12.6229 7.63585 11.972 6.47774 11.5854L3.36344 10.5504C3.2579 10.5165 3.16583 10.45 3.10052 10.3605C3.0352 10.2709 3 10.1629 3 10.0521C3 9.94122 3.0352 9.83322 3.10052 9.74366C3.16583 9.6541 3.2579 9.5876 3.36344 9.55375L6.43775 8.48044C7.60838 8.09619 8.67212 7.44168 9.54288 6.56987C10.4136 5.69807 11.067 4.63346 11.45 3.46221L12.4831 0.345612C12.5208 0.241149 12.5907 0.151393 12.6828 0.0893309C12.7749 0.0272686 12.8843 -0.00388169 12.9953 0.000386806C13.1063 0.00465531 13.213 0.044121 13.3 0.113075C13.3871 0.182028 13.4499 0.276893 13.4795 0.383945Z" fill="white"/>
<circle cx="1.5" cy="1.5" r="1.5" transform="matrix(-1 0 0 1 55 19)" fill="white"/>
<circle cx="1.5" cy="1.5" r="1.5" transform="matrix(-1 0 0 1 3 39)" fill="white"/>
</svg>
