<svg width="36" height="33" viewBox="0 0 36 33" fill="none" xmlns="http://www.w3.org/2000/svg">
<path d="M10.4795 13.3839L11.5126 16.4622C11.897 17.6325 12.5509 18.6962 13.4214 19.5675C14.292 20.4388 15.355 21.0935 16.5248 21.4788L19.6391 22.5154C19.7441 22.5497 19.8355 22.6162 19.9003 22.7056C19.9651 22.7949 20 22.9025 20 23.0129C20 23.1233 19.9651 23.2309 19.9003 23.3202C19.8355 23.4096 19.7441 23.4761 19.6391 23.5104L16.5232 24.5454C15.3646 24.9312 14.3119 25.5821 13.4491 26.4463C12.5862 27.3105 11.9368 28.3642 11.5526 29.5236L10.5195 32.6402C10.4848 32.7449 10.418 32.8361 10.3285 32.9006C10.2391 32.9652 10.1316 33 10.0213 33C9.91097 33 9.80346 32.9652 9.71403 32.9006C9.62459 32.8361 9.55777 32.7449 9.52306 32.6402L8.44997 29.5619C8.06423 28.4033 7.41412 27.3505 6.5511 26.4867C5.68808 25.6229 4.63585 24.972 3.47774 24.5854L0.363436 23.5504C0.257896 23.5165 0.165833 23.45 0.100515 23.3605C0.0351963 23.2709 0 23.1629 0 23.0521C0 22.9412 0.0351963 22.8332 0.100515 22.7437C0.165833 22.6541 0.257896 22.5876 0.363436 22.5538L3.43775 21.4804C4.60838 21.0962 5.67212 20.4417 6.54288 19.5699C7.41365 18.6981 8.06696 17.6335 8.44997 16.4622L9.48307 13.3456C9.52078 13.2411 9.59073 13.1514 9.68282 13.0893C9.77491 13.0273 9.88435 12.9961 9.99531 13.0004C10.1063 13.0047 10.213 13.0441 10.3 13.1131C10.3871 13.182 10.4499 13.2769 10.4795 13.3839Z" fill="white"/>
<circle cx="1.5" cy="1.5" r="1.5" transform="matrix(-1 0 0 1 36 0)" fill="white"/>
</svg>
