<svg width="81" height="88" viewBox="0 0 81 88" fill="none" xmlns="http://www.w3.org/2000/svg">
<path d="M30.25 31.7C24.2845 29.65 21.107 27.5549 22.05 19.4C22.583 14.808 24.1 11.2 20 7.1L30.25 3C30.9347 7.7847 34.35 13.25 40.5 15.3C46.65 13.25 50.0653 7.7847 50.75 3L61 7.1C56.9 11.2 58.417 14.808 58.95 19.4C59.893 27.5549 56.7155 29.65 50.75 31.7M26.15 44H54.85C52.8 39.9 52.8 35.8 52.8 31.7H28.2C28.2 35.8 28.2 39.9 26.15 44Z" stroke="#040814" stroke-width="6" stroke-linecap="round" stroke-linejoin="round"/>
<path d="M58.1788 82.7368C63.4555 85.7544 70.3845 85.6888 75.7391 82.6712C77.2151 81.8225 77.9818 79.8668 76.8748 78.6901C68.9741 70.2728 63.0373 59.9941 58.9168 49.5555C57.8303 46.7962 57.2891 45.4227 56.2436 44.7093C55.1981 43.9959 53.7959 44 50.9956 44H30.0118C27.2033 44 25.8011 44 24.7556 44.7093C23.7101 45.4227 23.1689 46.8003 22.0824 49.5514C17.9619 59.9982 12.0251 70.2728 4.12436 78.6901C3.01736 79.8668 3.78816 81.8225 5.26006 82.6671C10.6147 85.6847 17.5437 85.7544 22.8204 82.7368C24.4579 81.8278 26.3 81.3509 28.1729 81.3509C30.0458 81.3509 31.8879 81.8278 33.5255 82.7368C35.6739 83.9463 38.2938 85 40.4996 85C42.7054 85 45.3253 83.9463 47.4696 82.7368C49.1076 81.8271 50.9504 81.3497 52.8242 81.3497C54.6979 81.3497 56.5407 81.8271 58.1788 82.7368Z" stroke="#040814" stroke-width="6" stroke-linecap="round" stroke-linejoin="round"/>
</svg>
