<svg width="298" height="45" viewBox="0 0 298 45" fill="none" xmlns="http://www.w3.org/2000/svg">
<path d="M24.813 0C27.3441 0.00659985 28.6288 0.0197995 29.738 0.0505988L30.1745 0.0659984C30.6785 0.083598 31.1757 0.105597 31.7764 0.131997C34.1703 0.241994 35.8037 0.611586 37.2369 1.15497C38.7218 1.71376 39.9728 2.47054 41.2237 3.69151C42.3677 4.79126 43.253 6.12155 43.8178 7.58982C44.3735 8.99119 44.7515 10.5884 44.864 12.9313C44.891 13.5165 44.9135 14.0027 44.9315 14.4977L44.945 14.9245C44.9787 16.0068 44.9922 17.263 44.9967 19.7379L44.999 21.3791V24.261C45.0045 25.8657 44.9873 27.4703 44.9472 29.0745L44.9338 29.5013C44.9158 29.9963 44.8933 30.4825 44.8663 31.0677C44.7538 33.4106 44.3713 35.0056 43.8178 36.4091C43.2546 37.8782 42.3692 39.2088 41.2237 40.3075C40.0987 41.4257 38.7383 42.2913 37.2369 42.844C35.8037 43.3874 34.1703 43.757 31.7764 43.867C31.2426 43.8916 30.7086 43.9136 30.1745 43.933L29.738 43.9462C28.6288 43.977 27.3441 43.9924 24.813 43.9968L23.1346 43.999H20.1895C18.5477 44.0045 16.9059 43.9876 15.2645 43.9484L14.828 43.9352C14.2939 43.9154 13.76 43.8927 13.2261 43.867C10.8322 43.757 9.19883 43.3874 7.7634 42.844C6.26198 42.2926 4.90204 41.4269 3.77885 40.3075C2.63377 39.2081 1.74771 37.8777 1.18249 36.4091C0.626766 35.0078 0.248785 33.4106 0.136291 31.0677C0.111225 30.5457 0.0887257 30.0235 0.0687947 29.5013L0.0575455 29.0745C0.0160847 27.4704 -0.0026663 25.8657 0.00129819 24.261V19.7379C-0.00498117 18.1333 0.0115197 16.5286 0.0507958 14.9245L0.0665449 14.4977C0.084544 14.0027 0.107043 13.5165 0.134041 12.9313C0.246536 10.5884 0.624516 8.99339 1.18024 7.58982C1.74522 6.12005 2.63303 4.78934 3.7811 3.69151C4.904 2.57278 6.26305 1.70713 7.7634 1.15497C9.19883 0.611586 10.83 0.241994 13.2261 0.131997C13.8246 0.105597 14.3241 0.083598 14.828 0.0659984L15.2645 0.0527986C16.9051 0.0137116 18.5462 -0.00315626 20.1873 0.00219979L24.813 0ZM22.5001 10.9997C19.5166 10.9997 16.6553 12.1586 14.5456 14.2215C12.4359 16.2843 11.2507 19.0822 11.2507 21.9995C11.2507 24.9168 12.4359 27.7146 14.5456 29.7775C16.6553 31.8403 19.5166 32.9992 22.5001 32.9992C25.4837 32.9992 28.345 31.8403 30.4547 29.7775C32.5644 27.7146 33.7496 24.9168 33.7496 21.9995C33.7496 19.0822 32.5644 16.2843 30.4547 14.2215C28.345 12.1586 25.4837 10.9997 22.5001 10.9997ZM22.5001 15.3996C23.3865 15.3995 24.2643 15.5701 25.0832 15.9016C25.9022 16.2331 26.6463 16.7192 27.2732 17.3319C27.9001 17.9447 28.3974 18.6721 28.7367 19.4728C29.076 20.2735 29.2508 21.1317 29.2509 21.9984C29.2511 22.8651 29.0766 23.7233 28.7376 24.5241C28.3985 25.3249 27.9015 26.0525 27.2748 26.6655C26.6481 27.2785 25.9041 27.7647 25.0853 28.0965C24.2664 28.4283 23.3888 28.5992 22.5024 28.5993C20.7123 28.5993 18.9955 27.904 17.7297 26.6663C16.4639 25.4286 15.7527 23.7499 15.7527 21.9995C15.7527 20.2491 16.4639 18.5704 17.7297 17.3327C18.9955 16.095 20.7123 15.3996 22.5024 15.3996M34.3143 7.69982C33.5684 7.69982 32.8531 7.98954 32.3257 8.50526C31.7982 9.02097 31.5019 9.72043 31.5019 10.4498C31.5019 11.1791 31.7982 11.8785 32.3257 12.3943C32.8531 12.91 33.5684 13.1997 34.3143 13.1997C35.0602 13.1997 35.7755 12.91 36.3029 12.3943C36.8303 11.8785 37.1266 11.1791 37.1266 10.4498C37.1266 9.72043 36.8303 9.02097 36.3029 8.50526C35.7755 7.98954 35.0602 7.69982 34.3143 7.69982Z" fill="#D1D4E1"/>
<path d="M67.4674 25.595C67.4674 26.9332 67.4074 28.2715 67.2874 29.6098C67.2074 30.9481 66.9475 32.1444 66.5076 33.1988C66.1077 34.2532 65.4879 35.1048 64.6481 35.7537C63.8083 36.4026 62.6486 36.727 61.169 36.727C59.5294 36.727 58.4296 36.3215 57.8698 35.5104C57.3499 34.6588 57.09 33.5435 57.09 32.1647L57.03 7.40653C57.03 7.1632 57.03 6.85905 57.03 6.49406C56.99 6.08852 56.99 5.70326 57.03 5.33828C57.11 4.97329 57.2499 4.66914 57.4499 4.42581C57.6498 4.14194 57.9498 4 58.3497 4C58.6696 4 58.9895 4.10138 59.3094 4.30415C59.6693 4.50692 59.8493 4.95302 59.8493 5.64243L60.0292 13.5504C60.4691 13.4288 60.949 13.368 61.4689 13.368C62.9485 13.368 64.0882 13.814 64.888 14.7062C65.7278 15.5984 66.3277 16.6731 66.6876 17.9303C67.0875 19.1874 67.3074 20.5257 67.3474 21.9451C67.4274 23.3239 67.4674 24.5406 67.4674 25.595ZM60.0892 30.0356C60.0892 31.2522 60.1692 32.1647 60.3292 32.773C60.4891 33.3813 60.929 33.6855 61.6488 33.6855C62.2487 33.6855 62.7086 33.4421 63.0285 32.9555C63.3884 32.4283 63.6483 31.82 63.8083 31.1306C63.9683 30.4006 64.0682 29.6706 64.1082 28.9407C64.1482 28.1701 64.1682 27.5415 64.1682 27.0549V23.1009C64.1682 22.2898 64.1282 21.499 64.0482 20.7285C63.9683 19.958 63.8083 19.2888 63.5684 18.7211C63.3684 18.1128 63.0885 17.6261 62.7286 17.2611C62.4086 16.8961 61.9688 16.7136 61.4089 16.7136C61.129 16.7136 60.829 16.7745 60.5091 16.8961C60.1892 16.9773 60.0292 17.18 60.0292 17.5045V22.2493C60.0292 22.8981 60.0292 23.6281 60.0292 24.4392C60.0292 25.2097 60.0292 25.9599 60.0292 26.6899C60.0692 27.4199 60.0892 28.089 60.0892 28.6973C60.0892 29.3056 60.0892 29.7517 60.0892 30.0356Z" fill="#D1D4E1"/>
<path d="M82.3718 38.4911C82.2918 39.3022 82.0918 40.093 81.7719 40.8635C81.492 41.6746 81.1121 42.3843 80.6322 42.9926C80.1523 43.6009 79.5925 44.0875 78.9526 44.4525C78.3128 44.8175 77.633 45 76.9131 45C76.1533 45 75.5535 44.8175 75.1136 44.4525C74.6737 44.0875 74.4538 43.6414 74.4538 43.1142C74.4538 42.7087 74.5737 42.3843 74.8137 42.1409C75.0536 41.9382 75.3535 41.776 75.7134 41.6543C76.0734 41.5326 76.4533 41.411 76.8532 41.2893C77.2531 41.2082 77.593 41.0663 77.8729 40.8635C78.5527 40.4174 79.0126 39.6672 79.2526 38.6128C79.4925 37.5584 79.6125 36.5648 79.6125 35.632C79.6125 35.2671 79.5925 34.8818 79.5525 34.4763C79.5525 34.0707 79.5525 33.6652 79.5525 33.2596C78.9926 33.7868 78.3528 34.2127 77.633 34.5371C76.9131 34.821 76.1133 34.9629 75.2336 34.9629C73.9539 34.9629 72.9341 34.6588 72.1743 34.0504C71.4545 33.4016 70.8946 32.6108 70.4947 31.678C70.1348 30.7453 69.8949 29.7315 69.7749 28.6365C69.6949 27.501 69.655 26.4263 69.655 25.4125C69.655 24.4797 69.675 23.5267 69.7149 22.5534C69.7949 21.5801 69.8549 20.6879 69.8949 19.8769C69.9749 19.0252 70.0549 18.275 70.1348 17.6261C70.2148 16.9773 70.2748 16.4906 70.3148 16.1662C70.3948 15.4362 70.4748 14.8887 70.5547 14.5237C70.6347 14.1182 70.7147 13.8343 70.7947 13.6721C70.9146 13.4693 71.0346 13.368 71.1546 13.368C71.2746 13.3274 71.4345 13.3071 71.6345 13.3071C72.1143 13.3071 72.4543 13.4693 72.6542 13.7938C72.8941 14.1182 73.0141 14.909 73.0141 16.1662C73.0141 17.5044 72.9541 19.1063 72.8342 20.9718C72.7142 22.8373 72.6542 24.723 72.6542 26.6291C72.6542 27.1968 72.6942 27.7849 72.7742 28.3932C72.8542 29.0015 72.9741 29.549 73.1341 30.0356C73.334 30.5223 73.614 30.9278 73.9739 31.2522C74.3338 31.5361 74.7737 31.678 75.2935 31.678C76.3333 31.678 77.2331 31.3131 77.9929 30.5831C78.7527 29.8126 79.1326 28.9001 79.1326 27.8457V14.9496C79.1326 14.179 79.4525 13.7938 80.0923 13.7938C80.3723 13.7938 80.6322 13.8952 80.8722 14.0979C81.1121 14.2601 81.312 14.6251 81.472 15.1929C81.592 15.6795 81.6919 16.4095 81.7719 17.3828C81.8919 18.3561 81.9719 19.451 82.0119 20.6677C82.0918 21.8843 82.1518 23.182 82.1918 24.5608C82.2718 25.9397 82.3118 27.2577 82.3118 28.5148C82.3518 29.772 82.3718 30.9278 82.3718 31.9822C82.4118 33.0366 82.4318 33.868 82.4318 34.4763C82.4318 35.409 82.4318 36.1795 82.4318 36.7878C82.4718 37.4367 82.4518 38.0045 82.3718 38.4911Z" fill="#D1D4E1"/>
<path d="M88.7564 21.0326C88.7564 21.6004 88.5765 22.1073 88.2166 22.5534C87.8567 22.959 87.3968 23.1617 86.8369 23.1617C86.2771 23.1617 85.7972 22.9792 85.3973 22.6142C85.0374 22.2087 84.8574 21.7221 84.8574 21.1543C84.8574 20.5054 85.0374 19.9985 85.3973 19.6335C85.7572 19.228 86.2771 19.0252 86.9569 19.0252C87.5167 19.0252 87.9566 19.228 88.2766 19.6335C88.5965 19.9985 88.7564 20.4649 88.7564 21.0326ZM88.7564 34.2938C88.7564 34.8615 88.5765 35.3482 88.2166 35.7537C87.8567 36.1592 87.3968 36.362 86.8369 36.362C86.2771 36.362 85.7972 36.1795 85.3973 35.8145C85.0374 35.409 84.8574 34.9224 84.8574 34.3546C84.8574 33.7057 85.0374 33.1988 85.3973 32.8338C85.7572 32.4283 86.2771 32.2255 86.9569 32.2255C87.5167 32.2255 87.9566 32.4283 88.2766 32.8338C88.5965 33.2394 88.7564 33.726 88.7564 34.2938Z" fill="#D1D4E1"/>
<path d="M132.618 30.7047C132.138 32.0836 131.418 33.2799 130.459 34.2938C129.539 35.3076 128.479 36.139 127.279 36.7878C126.12 37.4772 124.86 37.9842 123.5 38.3086C122.181 38.633 120.861 38.7953 119.541 38.7953C117.142 38.7953 115.003 38.3086 113.123 37.3353C111.283 36.4026 109.704 35.1657 108.384 33.6246C107.104 32.043 106.125 30.2384 105.445 28.2107C104.765 26.183 104.425 24.0945 104.425 21.9451C104.425 19.3902 104.745 17.0178 105.385 14.8279C106.025 12.638 106.965 10.7522 108.204 9.17062C109.484 7.54847 111.064 6.2913 112.943 5.39911C114.823 4.50692 117.002 4.06083 119.481 4.06083C121.321 4.06083 122.981 4.40554 124.46 5.09496C125.98 5.78437 127.259 6.71711 128.299 7.89317C129.379 9.06924 130.199 10.4683 130.759 12.0905C131.358 13.6721 131.658 15.3551 131.658 17.1395C131.658 18.5589 131.538 19.9377 131.298 21.276C131.098 22.6142 130.579 23.8917 129.739 25.1083C129.299 25.7977 128.659 26.4466 127.819 27.0549C127.02 27.6632 126.2 27.9674 125.36 27.9674C124.08 27.9674 123.12 27.5821 122.481 26.8116C121.881 26.041 121.481 25.1691 121.281 24.1958C121.041 24.7636 120.761 25.3516 120.441 25.9599C120.161 26.5683 119.821 27.1157 119.421 27.6024C119.022 28.0485 118.542 28.4135 117.982 28.6973C117.462 28.9407 116.842 29.042 116.122 29.0015C115.402 28.9204 114.803 28.6973 114.323 28.3323C113.843 27.9674 113.463 27.5213 113.183 26.9941C112.943 26.4263 112.763 25.8383 112.643 25.23C112.523 24.6217 112.463 24.0539 112.463 23.5267C112.463 22.6751 112.563 21.7423 112.763 20.7285C113.003 19.6741 113.363 18.7211 113.843 17.8694C114.323 16.9773 114.923 16.227 115.642 15.6187C116.402 15.0104 117.302 14.7062 118.342 14.7062C118.822 14.7062 119.241 14.8076 119.601 15.0104C119.961 15.1726 120.281 15.3754 120.561 15.6187C120.841 15.8215 121.061 16.0242 121.221 16.227C121.421 16.3892 121.601 16.4703 121.761 16.4703C122.121 16.4703 122.381 16.2676 122.541 15.862C122.701 15.4565 122.961 15.2537 123.32 15.2537H123.44C123.72 15.3348 123.86 15.4565 123.86 15.6187C123.62 16.957 123.44 18.2344 123.32 19.451C123.24 20.6271 123.24 21.6612 123.32 22.5534C123.4 23.405 123.6 24.0945 123.92 24.6217C124.24 25.1489 124.66 25.4125 125.18 25.4125C126.02 25.4125 126.68 25.088 127.159 24.4392C127.639 23.7498 127.999 22.9387 128.239 22.0059C128.519 21.0732 128.699 20.0999 128.779 19.0861C128.859 18.0722 128.899 17.2408 128.899 16.592C128.899 15.132 128.679 13.7938 128.239 12.5771C127.839 11.3605 127.239 10.3061 126.44 9.41395C125.68 8.48121 124.72 7.75124 123.56 7.22403C122.401 6.69683 121.061 6.43323 119.541 6.43323C117.422 6.43323 115.582 6.83877 114.023 7.64985C112.503 8.42037 111.243 9.51533 110.244 10.9347C109.284 12.3136 108.564 13.956 108.084 15.862C107.644 17.7275 107.424 19.7349 107.424 21.8843C107.424 23.6281 107.684 25.3516 108.204 27.0549C108.724 28.7176 109.484 30.2181 110.484 31.5564C111.523 32.8541 112.783 33.9085 114.263 34.7196C115.742 35.5307 117.422 35.9362 119.301 35.9362C121.821 35.9362 123.84 35.4496 125.36 34.4763C126.92 33.4624 128.359 31.9214 129.679 29.8531C129.879 29.5692 130.119 29.2043 130.399 28.7582C130.679 28.3121 131.019 28.089 131.418 28.089C132.058 28.089 132.458 28.3932 132.618 29.0015C132.818 29.5692 132.818 30.137 132.618 30.7047ZM116.242 26.5074C116.842 26.5885 117.382 26.3249 117.862 25.7166C118.342 25.0678 118.742 24.3175 119.062 23.4659C119.381 22.5737 119.621 21.7018 119.781 20.8501C119.941 19.958 120.021 19.3091 120.021 18.9036C120.021 18.3358 119.901 17.8694 119.661 17.5045C119.421 17.0989 119.002 16.8961 118.402 16.8961C117.762 16.8961 117.222 17.1597 116.782 17.6869C116.382 18.1736 116.042 18.7819 115.762 19.5119C115.522 20.2013 115.342 20.911 115.222 21.6409C115.142 22.3709 115.102 22.9792 115.102 23.4659C115.102 23.5875 115.102 23.8106 115.102 24.135C115.142 24.4594 115.202 24.7839 115.282 25.1083C115.362 25.4327 115.462 25.7369 115.582 26.0208C115.742 26.3046 115.962 26.4669 116.242 26.5074Z" fill="#D1D4E1"/>
<path d="M144.248 35.9362C144.248 36.2201 144.168 36.4228 144.008 36.5445C143.888 36.7067 143.708 36.8284 143.468 36.9095C143.268 36.9906 143.048 37.0312 142.808 37.0312C142.608 37.0717 142.448 37.092 142.328 37.092C140.809 37.092 139.609 36.6865 138.729 35.8754C137.889 35.0237 137.249 34.0099 136.81 32.8338C136.37 31.6578 136.11 30.4614 136.03 29.2448C135.91 27.9876 135.85 26.9738 135.85 26.2033C135.85 24.0539 136.03 22.1884 136.39 20.6068C136.79 18.9847 137.289 17.6464 137.889 16.592C138.489 15.497 139.149 14.686 139.869 14.1588C140.629 13.6316 141.368 13.368 142.088 13.368C143.088 13.368 143.588 13.7938 143.588 14.6454C143.588 15.0509 143.428 15.3348 143.108 15.497C142.788 15.6592 142.488 15.8215 142.208 15.9837C141.528 16.3487 140.969 16.8759 140.529 17.5653C140.129 18.2547 139.809 19.0049 139.569 19.816C139.329 20.6271 139.169 21.4585 139.089 22.3101C139.009 23.1212 138.969 23.8309 138.969 24.4392C138.969 25.7369 139.049 27.0143 139.209 28.2715C139.409 29.5287 139.669 30.5628 139.989 31.3739C140.389 32.3877 140.829 33.1177 141.308 33.5638C141.788 34.0099 142.248 34.3546 142.688 34.5979C143.128 34.8007 143.488 34.9832 143.768 35.1454C144.088 35.2671 144.248 35.5307 144.248 35.9362Z" fill="#D1D4E1"/>
<path d="M157.94 35.2062C157.94 36.1795 157.36 36.6662 156.201 36.6662C155.201 36.6662 154.701 36.2404 154.701 35.3887C154.701 32.996 154.721 30.6439 154.761 28.3323C154.801 25.9802 154.781 23.6078 154.701 21.2151C154.701 20.769 154.681 20.2824 154.641 19.7552C154.601 19.1874 154.501 18.6602 154.341 18.1736C154.181 17.6869 153.941 17.2814 153.621 16.957C153.301 16.6325 152.841 16.4703 152.242 16.4703C151.602 16.4703 151.022 16.6528 150.502 17.0178C150.022 17.3828 149.782 17.7275 149.782 18.0519C149.782 19.4308 149.782 20.8704 149.782 22.3709C149.822 23.8714 149.842 25.3922 149.842 26.9332C149.882 28.4337 149.902 29.9342 149.902 31.4347C149.902 32.8947 149.862 34.2938 149.782 35.632C149.782 35.9565 149.622 36.1998 149.302 36.362C148.982 36.5648 148.603 36.6662 148.163 36.6662C147.283 36.6662 146.823 36.3215 146.783 35.632C146.703 34.821 146.663 33.9693 146.663 33.0772C146.703 32.1444 146.723 31.2725 146.723 30.4614C146.723 28.9204 146.723 27.3591 146.723 25.7774C146.763 24.1958 146.783 22.6345 146.783 21.0935L146.903 14.8887C146.903 13.3477 146.903 11.7863 146.903 10.2047C146.943 8.62315 146.963 7.06182 146.963 5.52077C146.963 4.87191 147.423 4.54748 148.343 4.54748C149.182 4.54748 149.602 4.85163 149.602 5.45994V14.3412C150.042 14.0979 150.482 13.9357 150.922 13.8546C151.362 13.7329 151.922 13.6721 152.602 13.6721C153.681 13.6721 154.561 14.0168 155.241 14.7062C155.921 15.3551 156.461 16.2473 156.86 17.3828C157.26 18.4777 157.54 19.7552 157.7 21.2151C157.86 22.6751 157.96 24.1958 158 25.7774C158.04 27.3591 158.04 28.9812 158 30.6439C157.96 32.2661 157.94 33.7868 157.94 35.2062Z" fill="#D1D4E1"/>
<path d="M168.68 35.0846C167.921 36.3012 166.841 36.9095 165.441 36.9095C164.321 36.9095 163.422 36.6256 162.742 36.0579C162.062 35.4901 161.542 34.7804 161.182 33.9288C160.822 33.0772 160.582 32.1647 160.462 31.1914C160.382 30.1775 160.342 29.2245 160.342 28.3323C160.342 27.0346 160.442 25.8383 160.642 24.7433C160.882 23.6484 161.282 22.7156 161.842 21.9451C162.402 21.134 163.142 20.546 164.061 20.181C165.021 19.816 166.221 19.7552 167.661 19.9985C167.661 18.8225 167.381 17.8897 166.821 17.2003C166.301 16.4703 165.401 16.1053 164.121 16.1053C163.682 16.1053 163.282 16.0851 162.922 16.0445C162.602 16.004 162.442 15.6998 162.442 15.132C162.442 14.8076 162.542 14.5643 162.742 14.4021C162.942 14.1993 163.182 14.0574 163.462 13.9763C163.782 13.8546 164.081 13.7938 164.361 13.7938C164.681 13.7532 164.961 13.7329 165.201 13.7329C166.201 13.7329 167.021 13.9154 167.661 14.2804C168.3 14.6048 168.8 15.0509 169.16 15.6187C169.56 16.1864 169.86 16.8556 170.06 17.6261C170.26 18.3966 170.42 19.2077 170.54 20.0593C170.62 20.7488 170.7 21.9248 170.78 23.5875C170.9 25.2502 171 26.9535 171.08 28.6973C171.16 30.7656 171.24 32.9758 171.32 35.3279C171.32 36.0173 170.9 36.362 170.06 36.362C169.66 36.362 169.36 36.2404 169.16 35.997C168.96 35.7132 168.8 35.409 168.68 35.0846ZM163.102 28.3932C163.102 28.8393 163.102 29.3867 163.102 30.0356C163.102 30.6439 163.162 31.2522 163.282 31.8605C163.442 32.4283 163.682 32.9149 164.002 33.3205C164.321 33.726 164.801 33.9288 165.441 33.9288C166.081 33.9288 166.661 33.6044 167.181 32.9555C167.741 32.2661 168.02 31.4753 168.02 30.5831C168.02 29.8126 168.02 29.1637 168.02 28.6365C168.02 28.0687 168.001 27.5415 167.961 27.0549C167.961 26.5277 167.941 26.0005 167.901 25.4733C167.901 24.9055 167.881 24.2364 167.841 23.4659C167.801 22.9792 167.601 22.6751 167.241 22.5534C166.921 22.3912 166.601 22.3101 166.281 22.3101C165.521 22.3101 164.921 22.5331 164.481 22.9792C164.081 23.3848 163.762 23.8917 163.522 24.5C163.322 25.1083 163.202 25.7774 163.162 26.5074C163.122 27.1968 163.102 27.8254 163.102 28.3932Z" fill="#D1D4E1"/>
<path d="M176.488 10.2656C176.488 10.7117 176.348 11.0564 176.068 11.2997C175.788 11.5025 175.448 11.6039 175.049 11.6039C174.729 11.6039 174.429 11.5025 174.149 11.2997C173.869 11.0969 173.729 10.7725 173.729 10.3264C173.729 9.88032 173.849 9.49505 174.089 9.17062C174.329 8.84619 174.709 8.68398 175.229 8.68398C175.668 8.68398 175.988 8.86647 176.188 9.23145C176.388 9.59644 176.488 9.94115 176.488 10.2656ZM177.028 35.4496C177.028 35.6929 176.948 35.9159 176.788 36.1187C176.588 36.5648 176.088 36.7878 175.289 36.7878C174.809 36.7878 174.389 36.6662 174.029 36.4229C173.709 36.2201 173.549 35.8956 173.549 35.4496L173.669 16.2878C173.669 15.6795 173.749 15.1523 173.909 14.7062C174.109 14.2601 174.549 14.0371 175.229 14.0371C175.508 14.0371 175.768 14.1182 176.008 14.2804C176.288 14.4021 176.488 14.7468 176.608 15.3145C176.728 15.7201 176.808 16.3892 176.848 17.322C176.888 18.2141 176.928 19.2685 176.968 20.4852C177.008 21.6612 177.028 22.9387 177.028 24.3175C177.028 25.6963 177.028 27.0752 177.028 28.454C177.028 29.7923 177.028 31.0697 177.028 32.2864C177.028 33.503 177.028 34.5574 177.028 35.4496Z" fill="#D1D4E1"/>
<path d="M182.091 35.5712C182.011 36.0173 181.831 36.3215 181.551 36.4837C181.311 36.6459 180.991 36.727 180.591 36.727C179.911 36.727 179.471 36.5242 179.271 36.1187C179.111 35.7132 179.031 35.2062 179.031 34.5979C179.031 33.9085 179.031 32.773 179.031 31.1914C179.031 29.5692 179.051 27.8457 179.091 26.0208C179.171 24.1958 179.311 22.4115 179.511 20.6677C179.751 18.9238 180.071 17.5653 180.471 16.592C180.791 15.862 181.251 15.2537 181.851 14.7671C182.491 14.2399 183.21 13.9763 184.01 13.9763C184.93 13.9763 185.71 14.2196 186.35 14.7062C187.029 15.1929 187.649 15.7809 188.209 16.4703C188.529 15.862 189.029 15.3145 189.709 14.8279C190.389 14.3007 191.068 14.0371 191.748 14.0371C192.748 14.0371 193.528 14.3412 194.088 14.9496C194.688 15.5173 195.147 16.227 195.467 17.0786C195.787 17.9303 196.007 18.8427 196.127 19.816C196.247 20.7488 196.347 21.5801 196.427 22.3101C196.627 24.3783 196.727 26.5074 196.727 28.6973C196.727 30.8467 196.727 32.9758 196.727 35.0846C196.727 35.8145 196.567 36.2404 196.247 36.362C195.967 36.5242 195.487 36.6053 194.808 36.6053C194.368 36.6053 193.988 36.5242 193.668 36.362C193.348 36.1592 193.188 35.7943 193.188 35.2671V33.1988L193.368 29.0623V26.9941C193.368 26.548 193.368 25.818 193.368 24.8042C193.368 23.7903 193.288 22.7765 193.128 21.7626C193.008 20.7082 192.788 19.7755 192.468 18.9644C192.148 18.1533 191.668 17.7478 191.028 17.7478C190.349 17.7478 189.869 18.0519 189.589 18.6602C189.349 19.228 189.229 19.7957 189.229 20.3635C189.229 21.6612 189.269 22.9995 189.349 24.3783C189.469 25.7572 189.469 27.0954 189.349 28.3932C189.309 28.7582 189.149 29.0826 188.869 29.3665C188.629 29.6098 188.309 29.7315 187.909 29.7315C187.549 29.7315 187.209 29.6098 186.89 29.3665C186.57 29.1231 186.41 28.7987 186.41 28.3932C186.41 27.7849 186.45 26.8927 186.53 25.7166C186.65 24.5 186.67 23.3037 186.59 22.1276C186.55 20.911 186.35 19.8566 185.99 18.9644C185.67 18.0722 185.09 17.6261 184.25 17.6261C183.25 17.6261 182.671 18.9847 182.511 21.7018C182.351 23.8511 182.311 26.0208 182.391 28.2107C182.471 30.4006 182.371 32.8541 182.091 35.5712Z" fill="#D1D4E1"/>
<path d="M207.492 35.0846C206.733 36.3012 205.653 36.9095 204.253 36.9095C203.134 36.9095 202.234 36.6256 201.554 36.0579C200.874 35.4901 200.354 34.7804 199.994 33.9288C199.634 33.0772 199.395 32.1647 199.275 31.1914C199.195 30.1775 199.155 29.2245 199.155 28.3323C199.155 27.0346 199.255 25.8383 199.454 24.7433C199.694 23.6484 200.094 22.7156 200.654 21.9451C201.214 21.134 201.954 20.546 202.874 20.181C203.833 19.816 205.033 19.7552 206.473 19.9985C206.473 18.8225 206.193 17.8897 205.633 17.2003C205.113 16.4703 204.213 16.1053 202.934 16.1053C202.494 16.1053 202.094 16.0851 201.734 16.0445C201.414 16.004 201.254 15.6998 201.254 15.132C201.254 14.8076 201.354 14.5643 201.554 14.4021C201.754 14.1993 201.994 14.0574 202.274 13.9763C202.594 13.8546 202.894 13.7938 203.174 13.7938C203.493 13.7532 203.773 13.7329 204.013 13.7329C205.013 13.7329 205.833 13.9154 206.473 14.2804C207.113 14.6048 207.612 15.0509 207.972 15.6187C208.372 16.1864 208.672 16.8556 208.872 17.6261C209.072 18.3966 209.232 19.2077 209.352 20.0593C209.432 20.7488 209.512 21.9248 209.592 23.5875C209.712 25.2502 209.812 26.9535 209.892 28.6973C209.972 30.7656 210.052 32.9758 210.132 35.3279C210.132 36.0173 209.712 36.362 208.872 36.362C208.472 36.362 208.172 36.2404 207.972 35.997C207.772 35.7132 207.612 35.409 207.492 35.0846ZM201.914 28.3932C201.914 28.8393 201.914 29.3867 201.914 30.0356C201.914 30.6439 201.974 31.2522 202.094 31.8605C202.254 32.4283 202.494 32.9149 202.814 33.3205C203.134 33.726 203.613 33.9288 204.253 33.9288C204.893 33.9288 205.473 33.6044 205.993 32.9555C206.553 32.2661 206.833 31.4753 206.833 30.5831C206.833 29.8126 206.833 29.1637 206.833 28.6365C206.833 28.0687 206.813 27.5415 206.773 27.0549C206.773 26.5277 206.753 26.0005 206.713 25.4733C206.713 24.9055 206.693 24.2364 206.653 23.4659C206.613 22.9792 206.413 22.6751 206.053 22.5534C205.733 22.3912 205.413 22.3101 205.093 22.3101C204.333 22.3101 203.733 22.5331 203.294 22.9792C202.894 23.3848 202.574 23.8917 202.334 24.5C202.134 25.1083 202.014 25.7774 201.974 26.5074C201.934 27.1968 201.914 27.8254 201.914 28.3932Z" fill="#D1D4E1"/>
<path d="M225.378 34.1721C225.378 34.7399 225.298 35.2873 225.138 35.8145C225.018 36.3012 224.678 36.5445 224.118 36.5445C223.558 36.5445 223.078 36.4837 222.679 36.362C222.319 36.1998 222.139 35.8348 222.139 35.2671C222.139 33.726 222.119 32.408 222.079 31.3131C222.079 30.1775 222.039 29.1231 221.959 28.1499C221.919 27.136 221.839 26.1222 221.719 25.1083C221.639 24.0539 221.499 22.8373 221.299 21.4585C221.059 19.6335 220.559 18.3358 219.799 17.5653C219.039 16.7948 218.26 16.4095 217.46 16.4095C217.1 16.4095 216.74 16.5109 216.38 16.7136C216.02 16.9164 215.84 17.2409 215.84 17.6869V35.0846C215.84 35.5307 215.74 35.8956 215.54 36.1795C215.38 36.4228 214.98 36.5445 214.341 36.5445C213.141 36.5445 212.541 35.8956 212.541 34.5979C212.541 32.773 212.561 31.1306 212.601 29.6706C212.641 28.1701 212.681 26.6899 212.721 25.23C212.801 23.9322 212.841 22.594 212.841 21.2151C212.881 19.8363 212.921 18.2953 212.961 16.592C212.961 15.9837 213.061 15.4768 213.261 15.0712C213.501 14.6657 213.781 14.3615 214.101 14.1588C214.461 13.956 214.84 13.814 215.24 13.7329C215.64 13.6518 216.02 13.6113 216.38 13.6113C217.82 13.6113 219.039 13.9357 220.039 14.5846C221.079 15.2334 221.919 16.0851 222.559 17.1395C223.238 18.1939 223.758 19.3902 224.118 20.7285C224.478 22.0262 224.738 23.3645 224.898 24.7433C225.098 26.0816 225.218 27.3996 225.258 28.6973C225.298 29.9545 225.318 31.0495 225.318 31.9822V33.1988C225.358 33.4016 225.378 33.726 225.378 34.1721Z" fill="#D1D4E1"/>
<path d="M239.078 34.5371C239.078 35.0643 238.998 35.4698 238.838 35.7537C238.718 35.997 238.518 36.1795 238.238 36.3012C237.998 36.3823 237.698 36.4229 237.338 36.4229C237.018 36.4229 236.658 36.4229 236.259 36.4229C234.059 36.4229 231.9 36.362 229.78 36.2404C229.3 36.1998 228.86 36.0376 228.461 35.7537C228.101 35.4698 227.921 34.9832 227.921 34.2938C227.921 33.9288 227.981 33.5435 228.101 33.138C228.221 32.7324 228.361 32.3472 228.521 31.9822C228.72 31.5767 228.9 31.2319 229.06 30.9481C229.22 30.6236 229.32 30.4006 229.36 30.2789C229.48 30.0356 229.72 29.5692 230.08 28.8798C230.44 28.1499 230.84 27.3185 231.28 26.3858C231.76 25.453 232.24 24.4797 232.719 23.4659C233.239 22.4115 233.699 21.4585 234.099 20.6068C234.539 19.7146 234.899 18.9644 235.179 18.3561C235.459 17.7072 235.599 17.3422 235.599 17.2611C235.599 16.9367 235.279 16.7542 234.639 16.7136C233.999 16.6731 233.299 16.6325 232.54 16.592C231.78 16.5109 231.08 16.3689 230.44 16.1662C229.8 15.9634 229.48 15.5579 229.48 14.9496C229.48 14.5846 229.62 14.321 229.9 14.1588C230.22 13.956 230.58 13.814 230.98 13.7329C231.42 13.6518 231.86 13.6113 232.3 13.6113C232.739 13.6113 233.099 13.6113 233.379 13.6113C233.779 13.6113 234.299 13.6113 234.939 13.6113C235.619 13.6113 236.279 13.6721 236.918 13.7938C237.558 13.8749 238.118 14.0168 238.598 14.2196C239.078 14.4224 239.318 14.7468 239.318 15.1929C239.318 15.5173 239.178 16.1053 238.898 16.957C238.618 17.8086 238.238 18.8225 237.758 19.9985C237.318 21.134 236.818 22.3506 236.259 23.6484C235.739 24.9461 235.219 26.2033 234.699 27.4199C234.179 28.5959 233.699 29.6503 233.259 30.5831C232.819 31.5158 232.5 32.2052 232.3 32.6513C232.659 32.6108 233.099 32.5702 233.619 32.5297C234.179 32.4891 234.759 32.4688 235.359 32.4688C236.279 32.4688 237.118 32.6108 237.878 32.8947C238.678 33.138 239.078 33.6855 239.078 34.5371Z" fill="#D1D4E1"/>
<path d="M248.882 35.0846C248.122 36.3012 247.043 36.9095 245.643 36.9095C244.523 36.9095 243.623 36.6256 242.944 36.0579C242.264 35.4901 241.744 34.7804 241.384 33.9288C241.024 33.0772 240.784 32.1647 240.664 31.1914C240.584 30.1775 240.544 29.2245 240.544 28.3323C240.544 27.0346 240.644 25.8383 240.844 24.7433C241.084 23.6484 241.484 22.7156 242.044 21.9451C242.604 21.134 243.344 20.546 244.263 20.181C245.223 19.816 246.423 19.7552 247.862 19.9985C247.862 18.8225 247.582 17.8897 247.023 17.2003C246.503 16.4703 245.603 16.1053 244.323 16.1053C243.883 16.1053 243.483 16.0851 243.124 16.0445C242.804 16.004 242.644 15.6998 242.644 15.132C242.644 14.8076 242.744 14.5643 242.944 14.4021C243.144 14.1993 243.384 14.0574 243.663 13.9763C243.983 13.8546 244.283 13.7938 244.563 13.7938C244.883 13.7532 245.163 13.7329 245.403 13.7329C246.403 13.7329 247.223 13.9154 247.862 14.2804C248.502 14.6048 249.002 15.0509 249.362 15.6187C249.762 16.1864 250.062 16.8556 250.262 17.6261C250.462 18.3966 250.622 19.2077 250.742 20.0593C250.822 20.7488 250.902 21.9248 250.982 23.5875C251.102 25.2502 251.202 26.9535 251.282 28.6973C251.362 30.7656 251.441 32.9758 251.521 35.3279C251.521 36.0173 251.102 36.362 250.262 36.362C249.862 36.362 249.562 36.2404 249.362 35.997C249.162 35.7132 249.002 35.409 248.882 35.0846ZM243.304 28.3932C243.304 28.8393 243.304 29.3867 243.304 30.0356C243.304 30.6439 243.364 31.2522 243.483 31.8605C243.643 32.4283 243.883 32.9149 244.203 33.3205C244.523 33.726 245.003 33.9288 245.643 33.9288C246.283 33.9288 246.863 33.6044 247.383 32.9555C247.942 32.2661 248.222 31.4753 248.222 30.5831C248.222 29.8126 248.222 29.1637 248.222 28.6365C248.222 28.0687 248.202 27.5415 248.162 27.0549C248.162 26.5277 248.142 26.0005 248.102 25.4733C248.102 24.9055 248.082 24.2364 248.042 23.4659C248.002 22.9792 247.802 22.6751 247.443 22.5534C247.123 22.3912 246.803 22.3101 246.483 22.3101C245.723 22.3101 245.123 22.5331 244.683 22.9792C244.283 23.3848 243.963 23.8917 243.723 24.5C243.523 25.1083 243.404 25.7774 243.364 26.5074C243.324 27.1968 243.304 27.8254 243.304 28.3932Z" fill="#D1D4E1"/>
<path d="M266.768 34.1721C266.768 34.7399 266.688 35.2873 266.528 35.8145C266.408 36.3012 266.068 36.5445 265.508 36.5445C264.948 36.5445 264.468 36.4837 264.068 36.362C263.708 36.1998 263.528 35.8348 263.528 35.2671C263.528 33.726 263.508 32.408 263.468 31.3131C263.468 30.1775 263.428 29.1231 263.348 28.1499C263.308 27.136 263.228 26.1222 263.108 25.1083C263.028 24.0539 262.888 22.8373 262.689 21.4585C262.449 19.6335 261.949 18.3358 261.189 17.5653C260.429 16.7948 259.649 16.4095 258.849 16.4095C258.49 16.4095 258.13 16.5109 257.77 16.7136C257.41 16.9164 257.23 17.2409 257.23 17.6869V35.0846C257.23 35.5307 257.13 35.8956 256.93 36.1795C256.77 36.4228 256.37 36.5445 255.73 36.5445C254.531 36.5445 253.931 35.8956 253.931 34.5979C253.931 32.773 253.951 31.1306 253.991 29.6706C254.031 28.1701 254.071 26.6899 254.111 25.23C254.191 23.9322 254.231 22.594 254.231 21.2151C254.271 19.8363 254.311 18.2953 254.351 16.592C254.351 15.9837 254.451 15.4768 254.651 15.0712C254.89 14.6657 255.17 14.3615 255.49 14.1588C255.85 13.956 256.23 13.814 256.63 13.7329C257.03 13.6518 257.41 13.6113 257.77 13.6113C259.209 13.6113 260.429 13.9357 261.429 14.5846C262.469 15.2334 263.308 16.0851 263.948 17.1395C264.628 18.1939 265.148 19.3902 265.508 20.7285C265.868 22.0262 266.128 23.3645 266.288 24.7433C266.488 26.0816 266.608 27.3996 266.648 28.6973C266.688 29.9545 266.708 31.0495 266.708 31.9822V33.1988C266.748 33.4016 266.768 33.726 266.768 34.1721Z" fill="#D1D4E1"/>
<path d="M277.295 35.0846C276.536 36.3012 275.456 36.9095 274.056 36.9095C272.936 36.9095 272.037 36.6256 271.357 36.0579C270.677 35.4901 270.157 34.7804 269.797 33.9288C269.437 33.0772 269.197 32.1647 269.077 31.1914C268.997 30.1775 268.957 29.2245 268.957 28.3323C268.957 27.0346 269.057 25.8383 269.257 24.7433C269.497 23.6484 269.897 22.7156 270.457 21.9451C271.017 21.134 271.757 20.546 272.676 20.181C273.636 19.816 274.836 19.7552 276.276 19.9985C276.276 18.8225 275.996 17.8897 275.436 17.2003C274.916 16.4703 274.016 16.1053 272.736 16.1053C272.297 16.1053 271.897 16.0851 271.537 16.0445C271.217 16.004 271.057 15.6998 271.057 15.132C271.057 14.8076 271.157 14.5643 271.357 14.4021C271.557 14.1993 271.797 14.0574 272.077 13.9763C272.397 13.8546 272.697 13.7938 272.976 13.7938C273.296 13.7532 273.576 13.7329 273.816 13.7329C274.816 13.7329 275.636 13.9154 276.276 14.2804C276.915 14.6048 277.415 15.0509 277.775 15.6187C278.175 16.1864 278.475 16.8556 278.675 17.6261C278.875 18.3966 279.035 19.2077 279.155 20.0593C279.235 20.7488 279.315 21.9248 279.395 23.5875C279.515 25.2502 279.615 26.9535 279.695 28.6973C279.775 30.7656 279.855 32.9758 279.935 35.3279C279.935 36.0173 279.515 36.362 278.675 36.362C278.275 36.362 277.975 36.2404 277.775 35.997C277.575 35.7132 277.415 35.409 277.295 35.0846ZM271.717 28.3932C271.717 28.8393 271.717 29.3867 271.717 30.0356C271.717 30.6439 271.777 31.2522 271.897 31.8605C272.057 32.4283 272.297 32.9149 272.617 33.3205C272.936 33.726 273.416 33.9288 274.056 33.9288C274.696 33.9288 275.276 33.6044 275.796 32.9555C276.356 32.2661 276.635 31.4753 276.635 30.5831C276.635 29.8126 276.635 29.1637 276.635 28.6365C276.635 28.0687 276.615 27.5415 276.576 27.0549C276.576 26.5277 276.556 26.0005 276.516 25.4733C276.516 24.9055 276.496 24.2364 276.456 23.4659C276.416 22.9792 276.216 22.6751 275.856 22.5534C275.536 22.3912 275.216 22.3101 274.896 22.3101C274.136 22.3101 273.536 22.5331 273.096 22.9792C272.696 23.3848 272.377 23.8917 272.137 24.5C271.937 25.1083 271.817 25.7774 271.777 26.5074C271.737 27.1968 271.717 27.8254 271.717 28.3932Z" fill="#D1D4E1"/>
<path d="M298 35.1454C298 35.4698 297.9 35.7537 297.7 35.997C297.5 36.2404 297.26 36.3823 296.98 36.4229H292.001C291.482 36.4229 291.062 36.4026 290.742 36.362C290.462 36.362 290.182 36.362 289.902 36.362C289.662 36.362 289.382 36.362 289.062 36.362C288.782 36.362 288.382 36.362 287.863 36.362C286.863 36.362 286.103 36.362 285.583 36.362C285.063 36.362 284.423 36.3823 283.664 36.4229C283.304 36.4229 282.984 36.3215 282.704 36.1187C282.464 35.9159 282.344 35.632 282.344 35.2671C282.344 34.4965 282.784 34.1113 283.664 34.1113H287.443C287.963 34.1113 288.362 34.1113 288.642 34.1113C288.962 34.0707 289.242 34.0504 289.482 34.0504C289.762 34.0504 290.042 34.0504 290.322 34.0504C290.642 34.0504 291.062 34.0504 291.582 34.0504C292.621 34.0504 293.581 34.0504 294.461 34.0504C295.341 34.0504 296.16 34.0707 296.92 34.1113C297.32 34.1113 297.6 34.2329 297.76 34.4763C297.92 34.7196 298 34.9426 298 35.1454Z" fill="#D1D4E1"/>
</svg>
